<svg viewBox="-12 0 511 512" width="512pt" xmlns="http://www.w3.org/2000/svg"><path d="m243.546875 0c-68.089844 0-123.484375 55.398438-123.484375 123.488281 0 68.089844 55.394531 123.488281 123.484375 123.488281 68.09375 0 123.488281-55.398437 123.488281-123.488281 0-68.089843-55.394531-123.488281-123.488281-123.488281zm0 0" fill="#00abfe"/><g fill="#206eed"><path d="m243.546875 0h-.003906v246.976562h.003906c68.09375 0 123.488281-55.398437 123.488281-123.488281 0-68.089843-55.394531-123.488281-123.488281-123.488281zm0 0"/><path d="m367.035156 123.488281c0-25.398437-7.710937-49.03125-20.910156-68.679687h-90.300781v91.507812h36.328125l14.132812 83.496094c36.332032-21.523438 60.75-61.121094 60.75-106.324219zm0 0"/><path d="m138.132812 107.953125h-17.097656c-.640625 5.089844-.972656 10.273437-.972656 15.535156 0 60.007813 43.027344 110.144531 99.847656 121.207031l2.410156-100.78125zm0 0"/><path d="m235.886719 42.699219-25.453125-38.183594c-41.394532 11.535156-74.097656 44.144531-85.757813 85.488281l81.351563 19.660156zm0 0"/></g><path d="m460.507812 243.273438c-26.011718-26.011719-68.222656-26.164063-94.441406-.488282l-110.683594 110.683594h-76.046874v-30h63.617187l46.167969-46.171875h-142.65625c-26.628906 0-51.464844 13.148437-66.441406 35.167969l-79.523438 116.949218 122.699219 82.585938 50.402343-61.578125h133.703126l180.175781-180.175781zm0 0" fill="#fed2a4"/><path d="m289.121094 277.296875h-45.273438v45.277344zm0 0" fill="#f6a96c"/><path d="m487.480469 270.246094-26.972657-26.972656c-26.011718-26.011719-68.222656-26.164063-94.441406-.488282l-110.683594 110.683594h-11.535156v96.953125h63.453125zm0 0" fill="#f6a96c"/><path d="m367.035156 123.488281c0-25.398437-7.710937-49.03125-20.910156-68.679687h-90.300781v91.507812h36.328125l14.132812 83.496094c36.332032-21.523438 60.75-61.121094 60.75-106.324219zm0 0" fill="#0943ba"/></svg>